<?xml version="1.0" encoding="UTF-8"?>
<!DOCTYPE svg PUBLIC "-//W3C//DTD SVG 1.1//EN" "http://www.w3.org/Graphics/SVG/1.1/DTD/svg11.dtd">
<!-- Creator: CorelDRAW -->
<svg xmlns="http://www.w3.org/2000/svg" xml:space="preserve" width="210mm" height="210mm" version="1.1" style="shape-rendering:geometricPrecision; text-rendering:geometricPrecision; image-rendering:optimizeQuality; fill-rule:evenodd; clip-rule:evenodd"
viewBox="0 0 21000 21000"
 xmlns:xlink="http://www.w3.org/1999/xlink"
 xmlns:xodm="http://www.corel.com/coreldraw/odm/2003">
 <defs>
  <style type="text/css">
   <![CDATA[
    .fil0 {fill:#28D57A}
    .fil1 {fill:#000000}
   ]]>
  </style>
 </defs>
 <g id="Capa_x0020_1">
  <metadata id="CorelCorpID_0Corel-Layer"/>
  <path class="fil0" d="M15171.09 15793.05c-390.75,0 -736.25,-109.15 -1023.03,-269.56 -194.77,-108.93 -297.41,-186.57 -452.54,-341.7 -145.94,-145.94 -112.24,-101.93 -239.97,-273.94 -38.46,-51.78 -67.39,-105.55 -103.6,-161.14 -36.93,-56.7 -59.52,-110.07 -91.37,-173.37l-132.87 -381.06c-151.22,-642.65 -12.34,-1201.42 342.58,-1735.24 88.51,-133.13 120.23,-141.52 176.93,-212.4l355.75 -313.9 338.23 -191.26c621.21,-265.95 1319.02,-267.98 1893.8,77.46 813.95,489.2 1229.84,1393.81 1007.56,2309.98 -89.37,368.37 -324.07,813.76 -606.65,1059.7 -227.34,197.88 -145.58,138.16 -415.03,316.91 -57.9,38.42 -107.34,63.39 -173.17,91.57 -257.25,110.14 -514.83,197.95 -876.62,197.95zm-2273.7 -905.12c54.72,34.21 100.13,147.5 139.21,205.18 25.93,38.26 119.43,158.64 133.47,201.59 226.64,229.5 264.09,306.6 565.91,516.29 557.07,387.06 1359.98,533.43 2033.36,362.28 421.86,-107.22 875.23,-348.11 1173.24,-648.84 34.74,-35.04 58.52,-58.69 93.55,-93.32 267.03,-264.01 488.97,-674.93 605.45,-1029.76 124.45,-379.05 138.12,-857.02 53.85,-1272.79 -81.35,-401.34 -263.71,-784.24 -520.22,-1099.41 -32.13,-39.48 -50.21,-67.01 -84.39,-102.49 -192.12,-199.46 -174.62,-182.18 -389.16,-342.79 -76.56,-57.31 -148.55,-95.98 -222.41,-147.73 -65.82,-16.86 -152.58,-75.67 -223.31,-108.04 -64.85,-29.68 -168.74,-49.97 -212.66,-98.03 -336.35,-78.19 -444.19,-124.63 -825.47,-124.63 -501.57,0 -1058.07,169.78 -1454.69,445.3 -380.36,264.2 -678.95,597.3 -886.66,1013.27 -329.2,659.24 -352.24,1476.91 -51.63,2149.17 22.09,49.38 61.32,129.26 72.56,174.75z"/>
  <path class="fil0" d="M14812.9 14173.43c-67.79,-45.4 -412.01,-403.87 -517.79,-510.04 -64.45,-64.68 -105.6,-128.47 -229.72,-128.47 -128.16,0 -233.6,109.03 -233.6,233.6 0,138.58 116.02,217.24 190.78,292l625.17 620.69c240.4,192.18 369.25,-54.2 447.58,-116.36 34.46,-27.36 80.39,-73.21 110.47,-107.56l341.15 -344.07c139.16,-110.45 382.09,-400.54 562.33,-558.95 87.89,-77.25 113.29,-137.02 217.94,-233.68 56.36,-52.04 71.68,-47.29 120.96,-112.64 89.45,-118.62 171.24,-114.46 171.24,-311.54 0,-103 -115.79,-202.44 -218.03,-202.44 -127.99,0 -170.68,69.32 -237.49,136.26l-954.94 960.57c-48.83,63.99 -38.68,44.28 -95.52,91.35 -103.76,85.95 -183.63,213.01 -300.53,291.28z"/>
  <path class="fil1" d="M10826.14 13176.74c-207.68,48.38 -732.45,15.57 -996.68,15.57 -22.59,-33.73 -46.72,-51.85 -46.72,-109.02l0 -840.96c0,-63.97 85.62,-93.43 155.74,-93.43l763.08 0c92.88,0 155.74,31.76 155.74,124.59 0,189.09 27.05,795.73 -31.16,903.25zm-1370.44 -685.24l-9.08 226.96c18.14,184.31 0.72,298.12 8.59,474.33 7.34,164.38 159.29,326.55 327.53,326.55l1074.56 0c158.45,0 327.03,-165.49 327.03,-327.03l0 -1027.85c0,-162.92 -164.1,-327.03 -327.03,-327.03l-1074.56 0c-137.43,0 -255.86,97.37 -298.24,200.12 -58.89,142.8 -28.8,288.16 -28.8,453.95zm-1915.52 700.81c-206.74,0 -346.4,24.84 -547.34,2.27 -150.83,-16.94 -464.92,58.47 -464.92,-80.14l0 -856.53c0,-88.39 70.07,-109.01 155.74,-109.01l778.66 0c142.62,0 125.84,110.15 125.01,186.44l7.41 760.34c-6.8,57.38 -28.53,57.77 -54.56,96.63zm-1354.88 -840.96c0,183.72 -14.63,828.26 41.34,955.35 47.93,108.84 154.12,212.64 301.28,212.64l1074.55 0c165.75,0 327.05,-164.78 327.05,-373.76l0 -934.39c0,-189.73 -127.65,-344.98 -283.65,-370.43 -92.68,-15.12 -754.49,-2.96 -962.21,-3.32 -334.7,-0.61 -498.36,49.93 -498.36,513.91zm4547.41 -1946.67l-840.96 0c-72.7,0 -109.01,-36.31 -109.01,-109.01l0 -825.38c0,-72.7 36.31,-109.01 109.01,-109.01l856.53 0c72.71,0 109.02,36.31 109.02,109.01l0 809.81c0,75.33 -49.26,124.58 -124.59,124.58zm-1292.59 -918.82l8.57 581.49c4.25,68.84 -0.76,16.34 -4.3,61.25 -4.84,61.81 8.06,76.17 11.31,135.82 10.28,187.4 -3.9,467.31 420.48,467.31l887.67 0c200.75,0 420.48,-120.89 420.48,-342.62l0 -981.12c0,-106.83 -42.8,-204.21 -98.39,-259.79 -53.03,-53.03 -160.4,-113.96 -259.8,-113.96l-996.68 0c-130.11,0 -227.5,59.02 -292.8,127.68 -63.13,66.39 -96.54,198.35 -96.54,323.94zm4656.42 451.63c0,563.36 213.16,467.19 -949.98,467.19 -52.47,0 -109.01,-27.52 -109.01,-77.86l0 -887.67c0,-50.36 56.54,-77.87 109.01,-77.87 197.77,0 781.3,-20.09 934.4,15.57 66.1,283.74 3.36,236.74 19.74,369.42 11.95,96.72 -4.16,85.92 -4.16,191.22zm-1401.6 -482.77l0 856.53c0,258.62 145.21,420.48 389.33,420.48l965.55 0c220.52,0 389.33,-151.35 389.33,-373.77l0 -965.54c0,-199.31 -167.94,-358.18 -389.33,-358.18l-996.69 0c-194.83,0 -358.19,173.04 -358.19,420.48zm-5217.05 949.96l-840.96 0c-52.47,0 -109.01,-27.52 -109.01,-77.86l0 -887.67c0,-50.36 56.54,-77.87 109.01,-77.87l840.96 0c57.18,0 75.28,24.13 109.01,46.71l7.35 835.16c12.19,91.15 -18.82,161.53 -116.36,161.53zm-1292.59 -934.39l0 607.36c0,65.4 11.47,87.23 12.44,126.09 0.92,36.91 -38.69,200.31 44.09,346.87 67.26,119.07 199.75,181.12 379.53,181.12l887.68 0c249.04,0 420.48,-141.85 420.48,-389.34l0 -949.97c0,-188.82 -173.81,-358.18 -389.34,-358.18l-965.54 0c-252.04,0 -389.34,181.2 -389.34,436.05zm7241.59 -3301.54c-149.38,0 -280.33,-114.36 -280.33,-233.6 0,-141.35 0.58,-197.27 124.59,-280.31 104.52,69.97 196.69,60.73 311.47,0 17.09,23.32 17.48,18.42 30.23,32.06 175.7,187.97 46.53,481.85 -185.96,481.85zm-295.9 -2164.68l9.35 95.52c1.26,51.07 -9.35,11.01 -9.35,75.79l14.92 684.16c-4.45,52.1 -19.23,76.69 -14.71,139.79 4.37,60.9 20.54,63.59 15.17,140.14 -4.24,60.33 -15.38,62.74 -15.38,141.6 -96.6,51.13 -176.62,105.08 -243.06,192.99 -221.91,293.58 -184.56,777.94 206.67,995.84 156.79,87.34 225.03,72.61 394.58,72.61 173.48,0 311.16,-105.26 405.07,-186.72 214.85,-186.41 251.75,-580.4 71.79,-850.77 -70.34,-105.67 -158.16,-156.53 -258.83,-223.95 0,-168.17 15.3,-1298.49 -8.27,-1408.89 -62.19,-291.27 -407.86,-273.22 -505.75,-117.39 -40.61,64.63 -62.2,143.6 -62.2,249.28zm-5839.98 2149.11l-77.87 0c-89.3,0 -218.02,-113.75 -218.02,-202.46 0,-166.85 -18.45,-200.1 124.58,-295.88 148.89,99.69 268.63,15.57 295.89,15.57 157.17,0 197.15,482.77 -124.58,482.77zm-311.47 -2164.69l0 965.55c0,108.98 30.9,218.28 1.5,297.29 -18.7,50.28 -43.8,54.33 -88.68,82.72 -99.71,63.09 -184.01,154.17 -235.05,263.29 -126.4,270.22 -63.46,532.37 108.59,738.34 235.13,281.45 772.01,274.47 985.94,-1.99 105.58,-136.4 177.68,-256.89 177.68,-460.83 0,-284.1 -152.74,-434.04 -314.3,-557.8 -50.45,-38.64 -59.14,-42.04 -60.77,-126.12 -6.64,-342.51 12.19,-714.17 1.82,-1060.79 -1.31,-43.55 -21.27,-305.39 -30.47,-327.72 -96.87,-234.82 -546.26,-238.17 -546.26,188.06zm763.1 1105.71c0,136.25 81.77,218.01 218.02,218.01l4796.58 0c234.46,0 276.23,-404.89 -31.16,-404.89l-4765.42 0c-116.8,0 -218.02,75.91 -218.02,186.88zm5427.43 10200.5c-14.04,-42.95 -107.54,-163.33 -133.47,-201.59 -39.08,-57.68 -84.49,-170.97 -139.21,-205.18 -628.22,29.16 -1326.24,1.87 -1962.23,1.87l-4921.15 0c-351.41,0 -665.86,34.34 -908.57,-88.13 -88.54,-44.67 -223.48,-122.79 -286.37,-196.41 -214.58,-251.22 -236.87,-440.92 -237.28,-743.83 -0.19,-143.03 -34.56,-312.95 -11.85,-477.99 24.65,-179.04 -11.49,-175.73 10.5,-441.13 20.62,-248.83 -19.27,-1355.4 -3.44,-1467.32 21.15,-149.42 -31.23,-162.88 2.03,-449.69 11.91,-102.7 -14.87,-160.27 -12.4,-230.6 2,-56.48 15.32,-44.78 10.42,-105.34 -28.66,-355.3 5.54,-345.34 4.57,-580.2l-15.98 -2211.81c-0.37,-99.46 13.98,-160.23 15.61,-233.56 160.44,-37.38 1166.78,-15.58 1417.17,-15.58 3284.96,0 6591.39,13.91 9873.84,-0.36 85.88,-0.37 107.79,10.68 170.94,15.94l0.08 3566.28c43.92,48.06 147.81,68.35 212.66,98.03 70.73,32.37 157.49,91.18 223.31,108.04l0 -5096.08c0.08,-335.78 -36.43,-476.85 -150.46,-706.07 -86.4,-173.65 -237.37,-362.97 -391.2,-465.32 -460.69,-306.49 -709.73,-261.35 -1436.15,-261.35 -119.63,0 -307.61,-11.28 -419.08,1.39 -193.73,22.02 -249.65,227.61 -99.69,361.64 56.32,50.34 78.37,43.19 175.75,42.28 301.66,-2.79 1023.82,-21.39 1236.56,40.44 308.69,89.74 545.06,345.63 620.56,656.46 48.05,197.84 27.66,1022.43 27.66,1264.92l-11461.95 0c0,-254.73 -28.28,-292.4 -4.17,-580.53 4.28,-51.21 -13.63,-119.07 -12.22,-198.55 1.53,-86.43 16,-99.67 17.02,-185.84 2.26,-192.95 -6.58,-314.79 108.99,-513.94 283.95,-489.3 657.24,-483.38 1182.97,-483.38 366.31,0 833.26,88.86 897.11,-130.94 19.13,-65.86 7.6,-144.62 -21.11,-184.4 -70.97,-98.37 -170.16,-89.76 -330.93,-89.56 -492.4,0.62 -1146.32,-55.33 -1526.63,139.73 -349.83,179.42 -627.15,502.21 -707.34,959 -43.29,246.66 -24.17,1312.64 -24.17,1642.17l0 4999.03c0,1051.78 -208.61,2085.77 794.41,2538.29 217.5,98.13 402.99,109.17 716.21,109.17l7498.68 0z"/>
 </g>
</svg>
